<?xml version="1.0" encoding="UTF-8" standalone="no"?>
<svg
   xmlns:dc="http://purl.org/dc/elements/1.1/"
   xmlns:cc="http://creativecommons.org/ns#"
   xmlns:rdf="http://www.w3.org/1999/02/22-rdf-syntax-ns#"
   xmlns:svg="http://www.w3.org/2000/svg"
   xmlns="http://www.w3.org/2000/svg"
   xmlns:sodipodi="http://sodipodi.sourceforge.net/DTD/sodipodi-0.dtd"
   xmlns:inkscape="http://www.inkscape.org/namespaces/inkscape"
   id="Layer_1"
   version="1.1"
   viewBox="0 0 56.799999 56.799999"
   xml:space="preserve"
   inkscape:version="0.91 r13725"
   sodipodi:docname="icon.svg"
   width="56.799999"
   height="56.799999"><metadata
     id="metadata33"><rdf:RDF><cc:Work
         rdf:about=""><dc:format>image/svg+xml</dc:format><dc:type
           rdf:resource="http://purl.org/dc/dcmitype/StillImage" /><dc:title></dc:title></cc:Work></rdf:RDF></metadata><defs
     id="defs31" /><sodipodi:namedview
     pagecolor="#ffffff"
     bordercolor="#666666"
     borderopacity="1"
     objecttolerance="10"
     gridtolerance="10"
     guidetolerance="10"
     inkscape:pageopacity="0"
     inkscape:pageshadow="2"
     inkscape:window-width="1920"
     inkscape:window-height="1015"
     id="namedview29"
     showgrid="false"
     fit-margin-top="0"
     fit-margin-left="0"
     fit-margin-right="0"
     fit-margin-bottom="0"
     inkscape:zoom="3.6875"
     inkscape:cx="28.4"
     inkscape:cy="28.4"
     inkscape:window-x="0"
     inkscape:window-y="36"
     inkscape:window-maximized="1"
     inkscape:current-layer="Layer_1" /><style
     type="text/css"
     id="style3">
	.st0{fill:#23B180;}
	.st1{fill:none;stroke:#6081C4;stroke-width:1.858;stroke-linecap:round;stroke-linejoin:round;stroke-miterlimit:10;}
	.st2{fill:none;stroke:#23B180;stroke-linecap:round;stroke-linejoin:round;stroke-miterlimit:10;}
	.st3{opacity:0.15;}
	.st4{opacity:0.2;}
	.st5{fill:#FFFFFF;}
</style><circle
     class="st0"
     cx="28.4"
     cy="28.4"
     r="26.1"
     id="circle5"
     style="fill:#23b180" /><path
     class="st2"
     d="m 48.5,9.1 c 4.8,5 7.8,11.8 7.8,19.3 0,15.4 -12.5,27.9 -27.9,27.9 C 13,56.3 0.5,43.8 0.5,28.4 0.5,13 13,0.5 28.4,0.5 c 3.4,0 6.7,0.6 9.7,1.7"
     id="path7"
     inkscape:connector-curvature="0"
     style="fill:none;stroke:#23b180;stroke-linecap:round;stroke-linejoin:round;stroke-miterlimit:10" /><path
     class="st2"
     d="m 41.9,4 c 1.2,0.6 2.3,1.4 3.3,2.2"
     id="path9"
     inkscape:connector-curvature="0"
     style="fill:none;stroke:#23b180;stroke-linecap:round;stroke-linejoin:round;stroke-miterlimit:10" /><circle
     class="st3"
     cx="28.4"
     cy="28.4"
     r="22.799999"
     id="circle11"
     style="opacity:0.15" /><circle
     class="st3"
     cx="28.4"
     cy="28.4"
     r="17.5"
     id="circle13"
     style="opacity:0.15" /><g
     id="g15"
     transform="translate(-3.6,-3.6)"><g
       class="st4"
       id="g17"
       style="opacity:0.2"><path
         d="M 45.2,30.7 C 45,24 39.4,18.5 32.6,18.5 c -6.8,0 -12.3,5.3 -12.6,12 0,0.2 0,0.4 0,0.6 0,2.4 0.7,4.6 1.8,6.5 l -2.3,6.7 7,-2.2 c 1.8,1 3.9,1.6 6.1,1.6 7,0 12.6,-5.6 12.6,-12.5 0,-0.3 0,-0.4 0,-0.5 z M 32.6,41.5 c -2.2,0 -4.2,-0.6 -5.8,-1.7 l -4.1,1.3 1.3,-3.9 c -1.3,-1.7 -2,-3.9 -2,-6.2 0,-0.3 0,-0.7 0.1,-1 0.5,-5.3 5,-9.5 10.5,-9.5 5.6,0 10.1,4.3 10.6,9.7 0,0.3 0,0.5 0,0.8 0,5.8 -4.8,10.5 -10.6,10.5 z"
         id="path19"
         inkscape:connector-curvature="0" /><path
         d="m 38.4,33.5 c -0.3,-0.2 -1.8,-0.9 -2.1,-1 -0.3,-0.1 -0.5,-0.2 -0.7,0.2 -0.2,0.3 -0.8,1 -1,1.2 -0.2,0.2 -0.4,0.2 -0.7,0.1 -0.3,-0.2 -1.3,-0.5 -2.5,-1.5 -0.9,-0.8 -1.5,-1.8 -1.7,-2.1 -0.2,-0.3 0,-0.5 0.1,-0.6 0.1,-0.1 0.3,-0.4 0.5,-0.5 0,-0.1 0.1,-0.1 0.1,-0.1 0.1,-0.1 0.1,-0.2 0.2,-0.4 0.1,-0.2 0.1,-0.4 0,-0.5 -0.1,-0.2 -0.7,-1.7 -1,-2.3 -0.3,-0.6 -0.5,-0.5 -0.7,-0.5 -0.2,0 -0.4,0 -0.6,0 -0.2,0 -0.5,0.1 -0.8,0.4 -0.3,0.3 -1.1,1 -1.1,2.6 0,0.4 0.1,0.7 0.2,1 0.3,1.1 1,2 1.1,2.1 0.2,0.2 2.1,3.4 5.3,4.6 3.1,1.2 3.1,0.8 3.7,0.8 0.6,-0.1 1.8,-0.7 2.1,-1.5 C 39,34.6 39,34 39,33.9 38.9,33.8 38.7,33.7 38.4,33.5 Z"
         id="XMLID_48_"
         inkscape:connector-curvature="0" /></g><g
       id="g22"><g
         id="g24"><path
           class="st5"
           d="M 44.8,30.4 C 44.6,23.6 39.1,18.2 32.2,18.2 c -6.8,0 -12.3,5.3 -12.6,12 0,0.2 0,0.4 0,0.6 0,2.4 0.7,4.6 1.8,6.5 l -2.3,6.7 7,-2.2 c 1.8,1 3.9,1.6 6.1,1.6 7,0 12.6,-5.6 12.6,-12.5 0,-0.3 0,-0.4 0,-0.5 z M 32.2,41.2 C 30,41.2 28,40.6 26.4,39.5 l -4.1,1.3 1.3,-3.9 c -1.3,-1.7 -2,-3.9 -2,-6.2 0,-0.3 0,-0.7 0.1,-1 0.5,-5.3 5,-9.5 10.5,-9.5 5.6,0 10.1,4.3 10.6,9.7 0,0.3 0,0.5 0,0.8 0,5.8 -4.7,10.5 -10.6,10.5 z"
           id="path26"
           inkscape:connector-curvature="0"
           style="fill:#ffffff" /><path
           class="st5"
           d="m 38,33.2 c -0.3,-0.2 -1.8,-0.9 -2.1,-1 -0.3,-0.1 -0.5,-0.2 -0.7,0.2 -0.2,0.3 -0.8,1 -1,1.2 -0.2,0.2 -0.4,0.2 -0.7,0.1 -0.3,-0.2 -1.3,-0.5 -2.5,-1.5 -0.9,-0.8 -1.5,-1.8 -1.7,-2.1 -0.2,-0.3 0,-0.5 0.1,-0.6 0.1,-0.1 0.3,-0.4 0.5,-0.5 0,-0.1 0.1,-0.1 0.1,-0.1 0.1,-0.1 0.1,-0.2 0.2,-0.4 0.1,-0.2 0.1,-0.4 0,-0.5 -0.1,-0.2 -0.7,-1.7 -1,-2.3 C 29,24.9 28.8,25 28.6,25 c -0.2,0 -0.4,0 -0.6,0 -0.2,0 -0.5,0.1 -0.8,0.4 -0.3,0.3 -1.1,1 -1.1,2.6 0,0.4 0.1,0.7 0.2,1 0.3,1.1 1,2 1.1,2.1 0.2,0.2 2.1,3.4 5.3,4.6 3.1,1.2 3.1,0.8 3.7,0.8 0.6,-0.1 1.8,-0.7 2.1,-1.5 0.3,-0.7 0.3,-1.3 0.2,-1.5 -0.2,-0.1 -0.4,-0.2 -0.7,-0.3 z"
           id="XMLID_39_"
           inkscape:connector-curvature="0"
           style="fill:#ffffff" /></g></g></g></svg>